HIERARCHY
ROOT Hips
{
	OFFSET 0.000000 88.474243 0.000000
	CHANNELS 6 Xposition Yposition Zposition Zrotation Yrotation Xrotation 
	JOINT Hips_Spine
	{
		OFFSET 0.000000 0.000000 0.000000
		CHANNELS 3 Zrotation Yrotation Xrotation
		JOINT Spine
		{
			OFFSET 0.005100 8.711998 -0.691000
			CHANNELS 3 Zrotation Yrotation Xrotation
			JOINT Spine1
			{
				OFFSET -0.009200 8.660301 -1.275000
				CHANNELS 3 Zrotation Yrotation Xrotation
				JOINT Spine2
				{
					OFFSET 0.006300 9.852501 -1.857000
					CHANNELS 3 Zrotation Yrotation Xrotation
					JOINT Spine2_Neck
					{
						OFFSET 0.000000 0.000000 0.000000
						CHANNELS 3 Zrotation Yrotation Xrotation
						JOINT Neck
						{
							OFFSET 0.016300 11.420799 -0.263300
							CHANNELS 3 Zrotation Yrotation Xrotation
							End Site #name: Head
							{
								OFFSET -0.019200 9.262405 2.362500
							}
						}
					}
					JOINT Spine2_LeftShoulder
					{
						OFFSET 0.000000 0.000000 0.000000
						CHANNELS 3 Zrotation Yrotation Xrotation
						JOINT LeftShoulder
						{
							OFFSET 5.616900 6.732201 -0.345700
							CHANNELS 3 Zrotation Yrotation Xrotation
							JOINT LeftArm
							{
								OFFSET 10.664888 -0.183372 -2.440700
								CHANNELS 3 Zrotation Yrotation Xrotation
								JOINT LeftForeArm
								{
									OFFSET 27.459126 0.000000 0.000000
									CHANNELS 3 Zrotation Yrotation Xrotation
									End Site #name: LeftHand
									{
										OFFSET 21.306858 0.000000 0.000000
									}
								}
							}
						}
					}
					JOINT Spine2_RightShoulder
					{
						OFFSET 0.000000 0.000000 0.000000
						CHANNELS 3 Zrotation Yrotation Xrotation
						JOINT RightShoulder
						{
							OFFSET -5.580300 6.737503 -0.344400
							CHANNELS 3 Zrotation Yrotation Xrotation
							JOINT RightArm
							{
								OFFSET -10.679335 -0.188484 -2.383900
								CHANNELS 3 Zrotation Yrotation Xrotation
								JOINT RightForeArm
								{
									OFFSET -27.503529 0.000000 0.000000
									CHANNELS 3 Zrotation Yrotation Xrotation
									End Site #name: RightHand
									{
										OFFSET -21.306808 0.000000 0.000000
									}
								}
							}
						}
					}
				}
			}
		}
	}
	JOINT Hips_LeftUpLeg
	{
		OFFSET 0.000000 0.000000 0.000000
		CHANNELS 3 Zrotation Yrotation Xrotation
		JOINT LeftUpLeg
		{
			OFFSET 6.857700 -6.739601 0.312100
			CHANNELS 3 Zrotation Yrotation Xrotation
			JOINT LeftLeg
			{
				OFFSET -0.367590 -34.731552 -4.572400
				CHANNELS 3 Zrotation Yrotation Xrotation
				End Site #name: LeftFoot
				{
					OFFSET 0.367590 -34.656704 -6.067400
				}
			}
		}
	}
	JOINT Hips_RightUpLeg
	{
		OFFSET 0.000000 0.000000 0.000000
		CHANNELS 3 Zrotation Yrotation Xrotation
		JOINT RightUpLeg
		{
			OFFSET -6.876100 -6.733299 0.301000
			CHANNELS 3 Zrotation Yrotation Xrotation
			JOINT RightLeg
			{
				OFFSET 0.347353 -34.795158 -4.515900
				CHANNELS 3 Zrotation Yrotation Xrotation
				End Site #name: RightFoot
				{
					OFFSET -0.347353 -34.589367 -6.070300
				}
			}
		}
	}
}
MOTION
Frames: 9
Frame Time: 0.041667
-0.070837 0.064127 0.051785 -4.183283 -0.074814 -1.903666 -0.000000 0.000000 0.000000 -0.768075 0.879395 5.594636 -1.719469 1.316847 9.792315 0.000000 0.000000 0.000000 -1.943172 1.434228 9.128017 -1.426183 -3.580190 4.378055 -2.020842 1.274544 10.088135 -0.742842 -0.536397 0.351102 -69.460811 -24.231320 22.015274 172.747847 -84.974576 -173.025922 -1.849270 1.713357 10.595497 -5.141751 -0.238164 1.442138 77.620749 -6.111751 5.935918 174.825123 84.126944 176.658136 0.000000 -0.000000 0.000000 6.704930 1.138968 -19.239264 -0.977175 0.911433 34.093379 -0.000000 0.000000 -0.000000 -4.272780 -2.916275 -15.642629 -0.276169 -2.078727 27.251106 
0.050260 0.090360 0.177145 -5.299961 -3.916595 -1.794990 -0.000000 0.000000 0.000000 -0.757656 0.472889 4.971190 -2.064132 1.448899 9.954378 0.000000 0.000000 0.000000 -1.799573 1.396705 9.917965 -2.154450 -4.039296 5.458391 -2.013593 1.553984 10.606623 0.943343 1.120177 -0.139869 -69.631131 -23.049297 31.311948 178.262412 -83.015817 -178.312850 -1.959002 1.265922 10.076019 -5.962997 -1.526561 0.848258 83.202038 -8.018270 6.661321 -169.170200 86.737809 -169.452083 0.000000 -0.000000 0.000000 6.860634 -0.019865 -22.583088 -0.514185 1.097592 32.392392 -0.000000 0.000000 -0.000000 -3.420120 -3.975608 -15.998925 0.879678 -0.506765 26.762062 
0.188115 0.072113 0.186846 -4.717137 -5.584155 -2.892315 0.000000 -0.000000 -0.000000 -0.701858 0.495890 4.844639 -2.082227 1.407563 9.824950 0.000000 0.000000 0.000000 -2.065191 1.557485 10.679817 -1.977227 -3.600816 4.716255 -1.800497 1.593381 10.284379 1.326211 0.919100 -0.172189 -71.014514 -17.815088 31.456532 -177.258280 -81.958544 177.129961 -2.005662 1.414729 10.040283 -4.508045 -1.391846 0.894780 82.051431 -7.906544 8.253572 -166.065874 87.271303 -166.476671 0.000000 -0.000000 0.000000 6.938978 0.728445 -22.530105 -0.591440 0.739298 33.352644 -0.000000 0.000000 -0.000000 -3.073947 -3.770198 -15.959273 0.544630 -0.943585 25.725328 
0.287498 0.032119 0.170053 -4.280613 -6.004788 -3.305625 0.000000 -0.000000 -0.000000 -0.584003 0.534838 4.694975 -2.002401 1.542178 9.801401 0.000000 0.000000 0.000000 -1.889753 1.609626 10.168604 -1.825020 -3.841015 5.082513 -1.838595 1.609958 10.126970 1.968472 0.606575 0.028041 -71.624239 -17.960370 31.772411 -176.467275 -82.926385 176.329987 -2.012130 1.556664 9.930168 -4.327753 -0.857919 1.161902 80.858099 -7.343352 8.190402 -169.042113 86.203289 -169.638327 0.000000 0.000000 0.000000 6.799295 1.006424 -22.743701 -0.920782 0.608121 33.931927 -0.000000 0.000000 0.000000 -2.718872 -3.476188 -16.297930 0.278005 -0.844879 26.340530 
0.361230 0.026522 0.219134 -4.447544 -5.564469 -3.066978 -0.000000 -0.000000 0.000000 -0.534244 0.658337 4.826190 -1.943865 1.583693 9.702054 0.000000 0.000000 0.000000 -1.806999 1.597007 9.655635 -1.634427 -3.958118 4.995086 -1.888743 1.587795 9.840957 2.086107 0.732193 0.155175 -71.779725 -18.914442 31.073382 -174.722554 -84.423211 174.931903 -2.012680 1.611517 9.883970 -4.626742 -1.473098 1.291998 80.488648 -8.230690 7.320377 -167.469673 86.039186 -168.088858 0.000000 0.000000 0.000000 6.417166 1.028559 -22.502747 -0.972813 0.644806 34.068217 -0.000000 -0.000000 0.000000 -2.764522 -3.508651 -16.621442 0.399943 -0.700460 26.707670 
0.445331 0.046733 0.301288 -4.640034 -5.113002 -2.921963 -0.000000 -0.000000 0.000000 -0.537951 0.744897 4.815676 -1.852937 1.542603 9.529201 0.000000 0.000000 0.000000 -1.777507 1.526824 9.413656 -1.473347 -3.823657 4.767211 -1.894759 1.525017 9.582173 1.860554 0.911449 0.150726 -71.998464 -19.659699 30.209761 -174.651118 -84.917296 174.828952 -1.987013 1.597655 9.800404 -5.068768 -1.813733 1.308942 80.695455 -9.103938 6.596401 -168.748650 85.597472 -169.302861 0.000000 0.000000 0.000000 6.206076 1.140695 -22.193528 -1.048451 0.714710 33.901683 -0.000000 -0.000000 0.000000 -3.180569 -3.622592 -16.376090 0.394582 -0.755858 26.565108 
0.550837 0.074128 0.373703 -4.803726 -5.119588 -2.719792 -0.000000 -0.000000 0.000000 -0.557064 0.758875 4.759733 -1.833713 1.535398 9.529797 0.000000 0.000000 0.000000 -1.810537 1.477371 9.426425 -1.281255 -3.688411 4.701066 -1.884722 1.484899 9.446808 1.619824 0.956522 0.116355 -71.748103 -20.202204 29.203429 -176.662461 -83.824897 176.793189 -1.925064 1.553437 9.701846 -5.231483 -1.586759 1.268746 80.987881 -9.035462 6.605768 -170.783446 85.339700 -171.198591 0.000000 0.000000 0.000000 6.075219 1.132756 -21.699506 -1.047516 0.708605 33.503209 -0.000000 -0.000000 0.000000 -3.736326 -3.624951 -15.977016 0.354134 -0.877436 25.966529 
0.667495 0.102645 0.431144 -4.921991 -5.347065 -2.521468 -0.000000 -0.000000 0.000000 -0.573126 0.764266 4.803559 -1.812344 1.525379 9.560137 0.000000 0.000000 0.000000 -1.806876 1.449324 9.468474 -1.025528 -3.546496 4.663635 -1.851163 1.479519 9.421464 1.564581 0.893028 0.124188 -71.606553 -20.552358 28.399721 -178.078612 -83.166974 178.152872 -1.843762 1.524121 9.616724 -5.124928 -1.291133 1.228828 80.874578 -8.555407 6.834718 -172.030267 85.350339 -172.318517 0.000000 0.000000 0.000000 6.006834 1.159685 -21.502408 -1.007928 0.669758 33.409205 -0.000000 -0.000000 0.000000 -4.119638 -3.533586 -15.772144 0.337445 -0.943246 25.432175 
0.792083 0.130412 0.478052 -4.986103 -5.601365 -2.370932 -0.000000 0.000000 0.000000 -0.560539 0.755087 4.879845 -1.768842 1.528006 9.599912 0.000000 0.000000 0.000000 -1.770698 1.449964 9.496575 -0.755991 -3.353958 4.635247 -1.801504 1.492131 9.478046 1.609494 0.899193 0.166869 -71.951913 -20.187901 28.298733 -178.573819 -83.202955 178.607837 -1.747508 1.500272 9.590777 -4.864502 -1.119088 1.223789 80.479009 -8.187844 6.934954 -172.711290 85.778976 -172.895645 0.000000 0.000000 0.000000 5.990699 1.178975 -21.449111 -0.979469 0.635451 33.392567 -0.000000 -0.000000 -0.000000 -4.223423 -3.344594 -15.824376 0.327016 -0.947231 25.171485 
